<svg width="1024" height="1024" viewBox="0 0 1024 1024" fill="none" xmlns="http://www.w3.org/2000/svg">
<g clip-path="url(#clip0_1_2)">
<path opacity="0.4" d="M512 5.86914C791.528 5.86914 1018.13 232.472 1018.13 512C1018.13 791.528 791.528 1018.13 512 1018.13C232.472 1018.13 5.86914 791.528 5.86914 512C5.86914 232.472 232.472 5.86914 512 5.86914Z" fill="#0A0C0F" stroke="#00FF88" stroke-width="6.26141"/>
<path d="M512 1015C789.799 1015 1015 789.799 1015 512C1015 234.201 789.799 9 512 9C234.201 9 9 234.201 9 512C9 789.799 234.201 1015 512 1015Z" fill="#0A0C0F"/>
<path d="M512 983.562C772.437 983.562 983.562 772.437 983.562 512C983.562 251.563 772.437 40.4375 512 40.4375C251.563 40.4375 40.4375 251.563 40.4375 512C40.4375 772.437 251.563 983.562 512 983.562Z" fill="url(#paint0_radial_1_2)"/>
<path opacity="0.4" d="M512 981.598C771.352 981.598 981.598 771.352 981.598 512C981.598 252.648 771.352 42.4023 512 42.4023C252.648 42.4023 42.4023 252.648 42.4023 512C42.4023 771.352 252.648 981.598 512 981.598Z" stroke="#00FF88" stroke-width="1.96484"/>
<path opacity="0.15" d="M512 973.738C767.011 973.738 973.738 767.011 973.738 512C973.738 256.989 767.011 50.2617 512 50.2617C256.989 50.2617 50.2617 256.989 50.2617 512C50.2617 767.011 256.989 973.738 512 973.738Z" stroke="#00FF88" stroke-width="0.491211"/>
<mask id="mask0_1_2" style="mask-type:luminance" maskUnits="userSpaceOnUse" x="40" y="40" width="944" height="944">
<path d="M512 983.562C772.437 983.562 983.562 772.437 983.562 512C983.562 251.563 772.437 40.4375 512 40.4375C251.563 40.4375 40.4375 251.563 40.4375 512C40.4375 772.437 251.563 983.562 512 983.562Z" fill="white"/>
</mask>
<g mask="url(#mask0_1_2)">
<g opacity="0.04">
<path d="M40.4375 48.2969H983.562" stroke="#00FF88" stroke-width="0.982422"/>
<path d="M40.4375 64.0156H983.562" stroke="#00FF88" stroke-width="0.982422"/>
<path d="M40.4375 79.7344H983.562" stroke="#00FF88" stroke-width="0.982422"/>
<path d="M40.4375 95.4531H983.562" stroke="#00FF88" stroke-width="0.982422"/>
<path d="M40.4375 111.172H983.562" stroke="#00FF88" stroke-width="0.982422"/>
<path d="M40.4375 126.891H983.562" stroke="#00FF88" stroke-width="0.982422"/>
<path d="M40.4375 142.609H983.562" stroke="#00FF88" stroke-width="0.982422"/>
<path d="M40.4375 158.328H983.562" stroke="#00FF88" stroke-width="0.982422"/>
<path d="M40.4375 174.047H983.562" stroke="#00FF88" stroke-width="0.982422"/>
<path d="M40.4375 189.766H983.562" stroke="#00FF88" stroke-width="0.982422"/>
<path d="M40.4375 205.484H983.562" stroke="#00FF88" stroke-width="0.982422"/>
<path d="M40.4375 221.203H983.562" stroke="#00FF88" stroke-width="0.982422"/>
<path d="M40.4375 236.922H983.562" stroke="#00FF88" stroke-width="0.982422"/>
<path d="M40.4375 252.641H983.562" stroke="#00FF88" stroke-width="0.982422"/>
<path d="M40.4375 268.359H983.562" stroke="#00FF88" stroke-width="0.982422"/>
<path d="M40.4375 284.078H983.562" stroke="#00FF88" stroke-width="0.982422"/>
<path d="M40.4375 299.797H983.562" stroke="#00FF88" stroke-width="0.982422"/>
<path d="M40.4375 315.516H983.562" stroke="#00FF88" stroke-width="0.982422"/>
<path d="M40.4375 331.234H983.562" stroke="#00FF88" stroke-width="0.982422"/>
<path d="M40.4375 346.953H983.562" stroke="#00FF88" stroke-width="0.982422"/>
<path d="M40.4375 362.672H983.562" stroke="#00FF88" stroke-width="0.982422"/>
<path d="M40.4375 378.391H983.562" stroke="#00FF88" stroke-width="0.982422"/>
<path d="M40.4375 394.109H983.562" stroke="#00FF88" stroke-width="0.982422"/>
<path d="M40.4375 409.828H983.562" stroke="#00FF88" stroke-width="0.982422"/>
<path d="M40.4375 425.547H983.562" stroke="#00FF88" stroke-width="0.982422"/>
<path d="M40.4375 441.266H983.562" stroke="#00FF88" stroke-width="0.982422"/>
<path d="M40.4375 456.984H983.562" stroke="#00FF88" stroke-width="0.982422"/>
<path d="M40.4375 472.703H983.562" stroke="#00FF88" stroke-width="0.982422"/>
<path d="M40.4375 488.422H983.562" stroke="#00FF88" stroke-width="0.982422"/>
<path d="M40.4375 504.141H983.562" stroke="#00FF88" stroke-width="0.982422"/>
<path d="M40.4375 519.859H983.562" stroke="#00FF88" stroke-width="0.982422"/>
<path d="M40.4375 535.578H983.562" stroke="#00FF88" stroke-width="0.982422"/>
<path d="M40.4375 551.297H983.562" stroke="#00FF88" stroke-width="0.982422"/>
<path d="M40.4375 567.016H983.562" stroke="#00FF88" stroke-width="0.982422"/>
<path d="M40.4375 582.734H983.562" stroke="#00FF88" stroke-width="0.982422"/>
<path d="M40.4375 598.453H983.562" stroke="#00FF88" stroke-width="0.982422"/>
<path d="M40.4375 614.172H983.562" stroke="#00FF88" stroke-width="0.982422"/>
<path d="M40.4375 629.891H983.562" stroke="#00FF88" stroke-width="0.982422"/>
<path d="M40.4375 645.609H983.562" stroke="#00FF88" stroke-width="0.982422"/>
<path d="M40.4375 661.328H983.562" stroke="#00FF88" stroke-width="0.982422"/>
<path d="M40.4375 677.047H983.562" stroke="#00FF88" stroke-width="0.982422"/>
<path d="M40.4375 692.766H983.562" stroke="#00FF88" stroke-width="0.982422"/>
<path d="M40.4375 708.484H983.562" stroke="#00FF88" stroke-width="0.982422"/>
<path d="M40.4375 724.203H983.562" stroke="#00FF88" stroke-width="0.982422"/>
<path d="M40.4375 739.922H983.562" stroke="#00FF88" stroke-width="0.982422"/>
<path d="M40.4375 755.641H983.562" stroke="#00FF88" stroke-width="0.982422"/>
<path d="M40.4375 771.359H983.562" stroke="#00FF88" stroke-width="0.982422"/>
<path d="M40.4375 787.078H983.562" stroke="#00FF88" stroke-width="0.982422"/>
<path d="M40.4375 802.797H983.562" stroke="#00FF88" stroke-width="0.982422"/>
<path d="M40.4375 818.516H983.562" stroke="#00FF88" stroke-width="0.982422"/>
<path d="M40.4375 834.234H983.562" stroke="#00FF88" stroke-width="0.982422"/>
<path d="M40.4375 849.953H983.562" stroke="#00FF88" stroke-width="0.982422"/>
<path d="M40.4375 865.672H983.562" stroke="#00FF88" stroke-width="0.982422"/>
<path d="M40.4375 881.391H983.562" stroke="#00FF88" stroke-width="0.982422"/>
<path d="M40.4375 897.109H983.562" stroke="#00FF88" stroke-width="0.982422"/>
<path d="M40.4375 912.828H983.562" stroke="#00FF88" stroke-width="0.982422"/>
<path d="M40.4375 928.547H983.562" stroke="#00FF88" stroke-width="0.982422"/>
<path d="M40.4375 944.266H983.562" stroke="#00FF88" stroke-width="0.982422"/>
<path d="M40.4375 959.984H983.562" stroke="#00FF88" stroke-width="0.982422"/>
<path d="M40.4375 975.703H983.562" stroke="#00FF88" stroke-width="0.982422"/>
</g>
</g>
<g filter="url(#filter0_f_1_2)">
<path d="M512 804.762C685.625 804.762 826.375 668.41 826.375 500.211C826.375 332.012 685.625 195.66 512 195.66C338.375 195.66 197.625 332.012 197.625 500.211C197.625 668.41 338.375 804.762 512 804.762Z" fill="url(#paint1_radial_1_2)"/>
<path d="M512 804.762C685.625 804.762 826.375 668.41 826.375 500.211C826.375 332.012 685.625 195.66 512 195.66C338.375 195.66 197.625 332.012 197.625 500.211C197.625 668.41 338.375 804.762 512 804.762Z" stroke="#00FF88" stroke-width="1.96484"/>
</g>
<path opacity="0.2" d="M512 775.289C669.347 775.289 796.902 652.132 796.902 500.211C796.902 348.289 669.347 225.133 512 225.133C354.653 225.133 227.098 348.289 227.098 500.211C227.098 652.132 354.653 775.289 512 775.289Z" stroke="#00FF88" stroke-width="0.785938"/>
<path opacity="0.2" d="M512 726.168C642.218 726.168 747.781 625.004 747.781 500.211C747.781 375.418 642.218 274.254 512 274.254C381.782 274.254 276.219 375.418 276.219 500.211C276.219 625.004 381.782 726.168 512 726.168Z" stroke="#00FF88" stroke-width="0.785938"/>
<path opacity="0.2" d="M512 675.082C612.377 675.082 693.748 596.79 693.748 500.211C693.748 403.632 612.377 325.34 512 325.34C411.623 325.34 330.252 403.632 330.252 500.211C330.252 596.79 411.623 675.082 512 675.082Z" stroke="#00FF88" stroke-width="0.785938"/>
<path opacity="0.2" d="M512 623.014C582.535 623.014 639.715 568.033 639.715 500.211C639.715 432.389 582.535 377.408 512 377.408C441.465 377.408 384.285 432.389 384.285 500.211C384.285 568.033 441.465 623.014 512 623.014Z" stroke="#00FF88" stroke-width="0.785938"/>
<path opacity="0.07" d="M388.152 275.657C385.86 271.346 380.506 269.709 376.194 272.001C371.883 274.294 370.246 279.648 372.538 283.959L507.214 537.248C509.507 541.56 514.861 543.196 519.172 540.904C523.484 538.611 525.121 533.258 522.828 528.946L388.152 275.657Z" fill="#00FF88"/>
<g opacity="0.7" filter="url(#filter1_f_1_2)">
<path d="M387.746 276.986C386.472 274.591 383.498 273.681 381.103 274.955C378.707 276.229 377.798 279.203 379.072 281.598L512.825 533.152C514.099 535.547 517.073 536.457 519.468 535.183C521.864 533.909 522.773 530.935 521.499 528.54L387.746 276.986Z" stroke="#00FF88" stroke-width="1.47363"/>
</g>
<g opacity="0.9" filter="url(#filter2_f_1_2)">
<path d="M618.102 343.023C623.527 343.023 627.926 338.625 627.926 333.199C627.926 327.773 623.527 323.375 618.102 323.375C612.676 323.375 608.277 327.773 608.277 333.199C608.277 338.625 612.676 343.023 618.102 343.023Z" fill="#00FF88"/>
</g>
<path d="M618.102 338.111C620.814 338.111 623.014 335.912 623.014 333.199C623.014 330.486 620.814 328.287 618.102 328.287C615.389 328.287 613.189 330.486 613.189 333.199C613.189 335.912 615.389 338.111 618.102 338.111Z" fill="#00FF88"/>
<path opacity="0.9" d="M512 535.578C531.533 535.578 547.367 519.744 547.367 500.211C547.367 480.678 531.533 464.844 512 464.844C492.467 464.844 476.633 480.678 476.633 500.211C476.633 519.744 492.467 535.578 512 535.578Z" fill="#0A1510" stroke="#00FF88" stroke-width="1.47363"/>
<path opacity="0.7" d="M512 523.789C525.022 523.789 535.578 513.233 535.578 500.211C535.578 487.189 525.022 476.633 512 476.633C498.978 476.633 488.422 487.189 488.422 500.211C488.422 513.233 498.978 523.789 512 523.789Z" fill="#0F1F18" stroke="#00FF88" stroke-width="0.982422"/>
<g filter="url(#filter3_f_1_2)">
<path d="M512 517.895C521.766 517.895 529.684 509.977 529.684 500.211C529.684 490.445 521.766 482.527 512 482.527C502.234 482.527 494.316 490.445 494.316 500.211C494.316 509.977 502.234 517.895 512 517.895Z" fill="url(#paint2_radial_1_2)"/>
</g>
<g filter="url(#filter4_f_1_2)">
<path d="M512 510.035C517.426 510.035 521.824 505.637 521.824 500.211C521.824 494.785 517.426 490.387 512 490.387C506.574 490.387 502.176 494.785 502.176 500.211C502.176 505.637 506.574 510.035 512 510.035Z" fill="#00FF88"/>
</g>
<path opacity="0.9" d="M512 505.123C514.713 505.123 516.912 502.924 516.912 500.211C516.912 497.498 514.713 495.299 512 495.299C509.287 495.299 507.088 497.498 507.088 500.211C507.088 502.924 509.287 505.123 512 505.123Z" fill="white"/>
<path opacity="0.6" d="M185.836 190.748H146.539V230.045" stroke="#00FF88" stroke-width="2.45605"/>
<path opacity="0.6" d="M838.164 190.748H877.461V230.045" stroke="#00FF88" stroke-width="2.45605"/>
<path opacity="0.6" d="M185.836 833.252H146.539V793.955" stroke="#00FF88" stroke-width="2.45605"/>
<path opacity="0.6" d="M838.164 833.252H877.461V793.955" stroke="#00FF88" stroke-width="2.45605"/>
<path d="M207.622 732.534V698.679C205.793 698.65 204.442 698.242 203.57 697.454C202.697 696.638 202.261 695.597 202.261 694.331C202.261 693.036 202.697 691.995 203.57 691.207C204.47 690.391 205.962 689.983 208.044 689.983L226.154 690.025C228.968 690.025 231.712 690.545 234.386 691.587C237.087 692.628 239.254 693.951 240.887 695.555C242.125 696.765 243.405 698.425 244.728 700.536C246.079 702.647 247.092 704.743 247.767 706.826C248.443 708.908 248.78 711.455 248.78 714.466V718.603C248.78 722.262 248.161 725.512 246.923 728.355C245.685 731.169 244.053 733.477 242.026 735.278C240.028 737.051 238.143 738.359 236.37 739.203C233.555 740.526 229.911 741.188 225.436 741.188H208.044C205.962 741.188 204.47 740.794 203.57 740.006C202.697 739.189 202.261 738.134 202.261 736.84C202.261 735.573 202.697 734.532 203.57 733.716C204.47 732.9 205.821 732.506 207.622 732.534ZM216.276 732.534H225.479C228.912 732.534 231.501 732.041 233.246 731.056C235.525 729.762 237.242 728.115 238.396 726.117C239.55 724.119 240.127 721.53 240.127 718.35V714.255C240.127 711.526 239.606 709.133 238.565 707.079C236.933 703.871 235.089 701.676 233.035 700.494C231.009 699.284 228.462 698.679 225.394 698.679H216.276V732.534ZM283.227 698.679V732.534H291.965C294.047 732.534 295.525 732.942 296.397 733.758C297.298 734.546 297.748 735.587 297.748 736.882C297.748 738.148 297.298 739.189 296.397 740.006C295.525 740.794 294.047 741.188 291.965 741.188H265.835C263.752 741.188 262.261 740.794 261.36 740.006C260.488 739.189 260.051 738.134 260.051 736.84C260.051 735.573 260.488 734.546 261.36 733.758C262.261 732.942 263.752 732.534 265.835 732.534H274.573V698.679H265.835C263.752 698.679 262.261 698.285 261.36 697.497C260.488 696.68 260.051 695.625 260.051 694.331C260.051 693.036 260.488 691.995 261.36 691.207C262.261 690.391 263.752 689.983 265.835 689.983L291.965 690.025C294.047 690.025 295.525 690.419 296.397 691.207C297.298 691.995 297.748 693.036 297.748 694.331C297.748 695.625 297.298 696.68 296.397 697.497C295.525 698.285 294.047 698.679 291.965 698.679H283.227ZM318.179 738.992C317.42 739.893 316.8 740.47 316.322 740.723C315.872 740.976 315.309 741.103 314.633 741.103C313.311 741.103 312.241 740.667 311.425 739.794C310.637 738.894 310.243 737.416 310.243 735.362V729.537C310.243 727.454 310.637 725.977 311.425 725.104C312.241 724.204 313.311 723.753 314.633 723.753C315.647 723.753 316.491 724.021 317.166 724.555C317.87 725.09 318.404 725.991 318.77 727.257C319.136 728.495 319.516 729.34 319.91 729.79C320.726 730.662 322.176 731.549 324.258 732.449C326.341 733.35 328.62 733.8 331.097 733.8C334.952 733.8 338.118 732.9 340.595 731.098C342.171 730.001 342.959 728.65 342.959 727.046C342.959 725.977 342.579 724.978 341.819 724.049C341.059 723.092 339.821 722.304 338.104 721.685C336.978 721.263 334.46 720.686 330.548 719.954C325.82 719.082 322.246 718.026 319.826 716.788C317.405 715.55 315.492 713.805 314.085 711.554C312.678 709.302 311.974 706.868 311.974 704.251C311.974 700.114 313.705 696.498 317.166 693.402C320.628 690.278 325.131 688.716 330.675 688.716C332.898 688.716 334.952 688.969 336.838 689.476C338.751 689.954 340.482 690.7 342.03 691.713C343.156 690.616 344.281 690.067 345.407 690.067C346.673 690.067 347.701 690.517 348.489 691.418C349.305 692.29 349.713 693.754 349.713 695.808V702.309C349.713 704.391 349.305 705.883 348.489 706.784C347.701 707.656 346.673 708.092 345.407 708.092C344.338 708.092 343.409 707.769 342.621 707.121C342.002 706.643 341.537 705.686 341.228 704.251C340.918 702.815 340.524 701.788 340.046 701.169C339.23 700.1 338.006 699.199 336.373 698.467C334.741 697.736 332.856 697.37 330.717 697.37C327.593 697.37 325.116 698.102 323.287 699.565C321.486 701 320.586 702.506 320.586 704.082C320.586 705.151 320.951 706.193 321.683 707.206C322.443 708.191 323.54 708.965 324.976 709.527C325.933 709.921 328.62 710.555 333.038 711.427C337.485 712.299 340.89 713.256 343.254 714.298C345.646 715.339 347.63 716.971 349.206 719.194C350.782 721.418 351.57 724.063 351.57 727.13C351.57 731.408 350.065 734.827 347.053 737.388C343.057 740.765 337.963 742.454 331.772 742.454C329.38 742.454 327.044 742.158 324.765 741.567C322.513 741.005 320.318 740.146 318.179 738.992ZM373.732 722.951V732.534H376.856C378.939 732.534 380.416 732.942 381.288 733.758C382.189 734.546 382.639 735.587 382.639 736.882C382.639 738.148 382.189 739.189 381.288 740.006C380.416 740.794 378.939 741.188 376.856 741.188H363.728C361.645 741.188 360.154 740.794 359.253 740.006C358.381 739.189 357.944 738.134 357.944 736.84C357.944 735.573 358.395 734.546 359.295 733.758C360.196 732.942 361.673 732.534 363.728 732.534H365.078V698.679H363.728C361.645 698.679 360.154 698.285 359.253 697.497C358.381 696.68 357.944 695.625 357.944 694.331C357.944 693.036 358.381 691.995 359.253 691.207C360.154 690.391 361.645 689.983 363.728 689.983L376.856 690.025C378.939 690.025 380.416 690.419 381.288 691.207C382.189 691.995 382.639 693.036 382.639 694.331C382.639 695.625 382.189 696.68 381.288 697.497C380.416 698.285 378.939 698.679 376.856 698.679H373.732V711.511L389.098 698.299C388.197 697.651 387.578 697.046 387.241 696.483C386.903 695.921 386.734 695.231 386.734 694.415C386.734 693.092 387.17 692.023 388.043 691.207C388.943 690.391 390.435 689.983 392.517 689.983L401.34 690.025C403.422 690.025 404.9 690.419 405.772 691.207C406.673 691.995 407.123 693.036 407.123 694.331C407.123 695.597 406.673 696.638 405.772 697.454C404.9 698.27 403.521 698.679 401.635 698.679L386.101 712.271C388.999 713.932 391.715 716.464 394.248 719.87C396.809 723.275 399.074 727.496 401.044 732.534H403.366C405.42 732.534 406.884 732.942 407.756 733.758C408.657 734.546 409.107 735.587 409.107 736.882C409.107 738.148 408.671 739.189 407.798 740.006C406.926 740.794 405.449 741.188 403.366 741.188H395.514C393.713 736.882 391.743 732.773 389.605 728.861C387.86 725.681 386.199 723.373 384.623 721.938C383.075 720.475 381.218 719.307 379.051 718.434L373.732 722.951ZM473.06 706.741V732.534H476.184C478.267 732.534 479.744 732.942 480.617 733.758C481.517 734.546 481.968 735.587 481.968 736.882C481.968 738.148 481.517 739.189 480.617 740.006C479.744 740.794 478.267 741.188 476.184 741.188H464.829C462.746 741.188 461.269 740.794 460.396 740.006C459.496 739.189 459.046 738.134 459.046 736.84C459.046 735.573 459.482 734.546 460.354 733.758C461.227 732.942 462.577 732.534 464.407 732.534V698.679C462.887 698.538 461.733 698.074 460.945 697.286C460.185 696.498 459.805 695.513 459.805 694.331C459.805 693.036 460.242 691.995 461.114 691.207C462.015 690.391 463.506 689.983 465.589 689.983L475.087 690.025L486.864 716.071L498.431 689.983L508.013 690.025C510.096 690.025 511.573 690.419 512.446 691.207C513.346 691.995 513.796 693.036 513.796 694.331C513.796 695.513 513.402 696.498 512.614 697.286C511.826 698.074 510.687 698.538 509.195 698.679V732.534C511.024 732.534 512.375 732.942 513.248 733.758C514.12 734.574 514.556 735.615 514.556 736.882C514.556 738.148 514.106 739.189 513.205 740.006C512.333 740.794 510.856 741.188 508.773 741.188H497.375C495.321 741.188 493.844 740.794 492.943 740.006C492.071 739.189 491.634 738.134 491.634 736.84C491.634 735.573 492.071 734.546 492.943 733.758C493.844 732.942 495.321 732.534 497.375 732.534H500.541V706.741L490.621 729.03H483.107L473.06 706.741ZM549.087 727.257H528.065L525.954 732.534H528.065C530.147 732.534 531.625 732.942 532.497 733.758C533.398 734.546 533.848 735.587 533.848 736.882C533.848 738.148 533.398 739.189 532.497 740.006C531.625 740.794 530.147 741.188 528.065 741.188H516.414C514.331 741.188 512.854 740.794 511.981 740.006C511.081 739.189 510.63 738.134 510.63 736.84C510.63 735.545 511.095 734.49 512.023 733.674C512.952 732.857 514.486 732.477 516.625 732.534L530.217 698.679H524.561C522.478 698.679 520.987 698.285 520.086 697.497C519.214 696.68 518.778 695.625 518.778 694.331C518.778 693.036 519.214 691.995 520.086 691.207C520.987 690.391 522.478 689.983 524.561 689.983L543.261 690.025L560.485 732.534C562.511 732.534 563.848 732.759 564.495 733.209C565.789 734.138 566.437 735.362 566.437 736.882C566.437 738.148 566 739.189 565.128 740.006C564.256 740.794 562.778 741.188 560.696 741.188H549.045C546.962 741.188 545.471 740.794 544.57 740.006C543.698 739.189 543.261 738.134 543.261 736.84C543.261 735.573 543.698 734.546 544.57 733.758C545.471 732.942 546.962 732.534 549.045 732.534H551.155L549.087 727.257ZM545.499 718.603L538.534 701.465L531.526 718.603H545.499ZM579.607 706.361V732.534H582.731C584.814 732.534 586.291 732.942 587.163 733.758C588.064 734.546 588.514 735.587 588.514 736.882C588.514 738.148 588.064 739.189 587.163 740.006C586.291 740.794 584.814 741.188 582.731 741.188H571.376C569.293 741.188 567.802 740.794 566.901 740.006C566.029 739.189 565.592 738.134 565.592 736.84C565.592 735.601 566.029 734.574 566.901 733.758C567.773 732.942 569.124 732.534 570.953 732.534V698.679H569.603C567.52 698.679 566.029 698.285 565.128 697.497C564.256 696.68 563.819 695.625 563.819 694.331C563.819 693.036 564.256 691.995 565.128 691.207C566.029 690.391 567.52 689.983 569.603 689.983L579.607 690.025L601.727 724.724V698.679H598.603C596.521 698.679 595.029 698.285 594.129 697.497C593.256 696.68 592.82 695.625 592.82 694.331C592.82 693.036 593.256 691.995 594.129 691.207C595.029 690.391 596.521 689.983 598.603 689.983L609.959 690.025C612.041 690.025 613.519 690.419 614.391 691.207C615.292 691.995 615.742 693.036 615.742 694.331C615.742 695.597 615.306 696.638 614.433 697.454C613.561 698.27 612.224 698.679 610.423 698.679V741.188H601.854L579.607 706.361ZM652.932 727.257H631.91L629.799 732.534H631.91C633.992 732.534 635.47 732.942 636.342 733.758C637.243 734.546 637.693 735.587 637.693 736.882C637.693 738.148 637.243 739.189 636.342 740.006C635.47 740.794 633.992 741.188 631.91 741.188H620.259C618.176 741.188 616.699 740.794 615.826 740.006C614.926 739.189 614.476 738.134 614.476 736.84C614.476 735.545 614.94 734.49 615.869 733.674C616.797 732.857 618.331 732.477 620.47 732.534L634.063 698.679H628.406C626.323 698.679 624.832 698.285 623.931 697.497C623.059 696.68 622.623 695.625 622.623 694.331C622.623 693.036 623.059 691.995 623.931 691.207C624.832 690.391 626.323 689.983 628.406 689.983L647.107 690.025L664.33 732.534C666.356 732.534 667.693 732.759 668.34 733.209C669.634 734.138 670.282 735.362 670.282 736.882C670.282 738.148 669.845 739.189 668.973 740.006C668.101 740.794 666.623 741.188 664.541 741.188H652.89C650.807 741.188 649.316 740.794 648.415 740.006C647.543 739.189 647.107 738.134 647.107 736.84C647.107 735.573 647.543 734.546 648.415 733.758C649.316 732.942 650.807 732.534 652.89 732.534H655L652.932 727.257ZM649.344 718.603L642.379 701.465L635.371 718.603H649.344ZM716.083 725.357V736.966C712.171 739.077 708.837 740.512 706.079 741.272C703.349 742.06 700.394 742.454 697.214 742.454C692.796 742.454 688.701 741.793 684.93 740.47C681.975 739.457 679.639 738.176 677.922 736.628C676.234 735.081 674.672 732.801 673.237 729.79C671.801 726.751 671.084 723.359 671.084 719.616V713.369C671.084 707.6 672.843 702.45 676.36 697.919C681.088 691.784 687.519 688.716 695.652 688.716C698.016 688.716 700.253 688.955 702.364 689.434C704.503 689.912 706.529 690.63 708.443 691.587C709.596 690.545 710.722 690.025 711.82 690.025C713.086 690.025 714.113 690.461 714.901 691.333C715.689 692.206 716.083 693.683 716.083 695.766V701.38C716.083 703.463 715.675 704.954 714.859 705.855C714.071 706.727 713.044 707.163 711.778 707.163C710.764 707.163 709.892 706.854 709.16 706.235C708.597 705.813 708.119 704.884 707.725 703.449C707.359 701.985 706.937 701 706.459 700.494C705.699 699.678 704.348 698.96 702.406 698.341C700.492 697.694 698.34 697.37 695.947 697.37C692.514 697.37 689.531 698.074 686.998 699.481C685.197 700.522 683.537 702.337 682.017 704.926C680.497 707.515 679.738 710.329 679.738 713.369V719.616C679.738 724.26 681.074 727.792 683.748 730.212C686.449 732.604 690.727 733.8 696.581 733.8C700.549 733.8 704.165 733.054 707.43 731.563V725.357H698.607C696.524 725.357 695.033 724.963 694.132 724.175C693.26 723.359 692.824 722.304 692.824 721.009C692.824 719.715 693.26 718.674 694.132 717.886C695.033 717.07 696.524 716.661 698.607 716.661L713.973 716.704C716.055 716.704 717.533 717.098 718.405 717.886C719.306 718.674 719.756 719.715 719.756 721.009C719.756 722.023 719.446 722.909 718.827 723.669C718.236 724.429 717.322 724.992 716.083 725.357ZM737.317 719.827V732.534H759.394V727.848C759.394 725.766 759.788 724.288 760.576 723.416C761.392 722.515 762.448 722.065 763.742 722.065C765.009 722.065 766.036 722.515 766.824 723.416C767.64 724.288 768.048 725.766 768.048 727.848V741.188H727.312C725.23 741.188 723.738 740.794 722.837 740.006C721.965 739.189 721.529 738.134 721.529 736.84C721.529 735.573 721.979 734.546 722.88 733.758C723.78 732.942 725.258 732.534 727.312 732.534H728.663V698.679H727.312C725.23 698.679 723.738 698.285 722.837 697.497C721.965 696.68 721.529 695.625 721.529 694.331C721.529 693.036 721.965 691.995 722.837 691.207C723.738 690.391 725.23 689.983 727.312 689.983L766.148 690.025V703.195C766.148 705.25 765.754 706.727 764.966 707.628C764.178 708.5 763.137 708.936 761.843 708.936C760.548 708.936 759.493 708.5 758.677 707.628C757.889 706.755 757.495 705.278 757.495 703.195V698.679H737.317V711.174H744.915C744.915 708.922 745.126 707.473 745.548 706.826C746.421 705.447 747.659 704.757 749.263 704.757C750.529 704.757 751.557 705.208 752.345 706.108C753.161 706.981 753.569 708.458 753.569 710.541V720.503C753.569 722.388 753.344 723.655 752.893 724.302C751.993 725.625 750.783 726.286 749.263 726.286C747.659 726.286 746.421 725.597 745.548 724.218C745.126 723.57 744.915 722.107 744.915 719.827H737.317ZM789.197 721.643V732.534H792.321C794.403 732.534 795.881 732.942 796.753 733.758C797.654 734.546 798.104 735.587 798.104 736.882C798.104 738.148 797.654 739.189 796.753 740.006C795.881 740.794 794.403 741.188 792.321 741.188H779.192C777.11 741.188 775.618 740.794 774.718 740.006C773.845 739.189 773.409 738.134 773.409 736.84C773.409 735.573 773.859 734.546 774.76 733.758C775.661 732.942 777.138 732.534 779.192 732.534H780.543V698.679H779.192C777.11 698.679 775.618 698.285 774.718 697.497C773.845 696.68 773.409 695.625 773.409 694.331C773.409 693.036 773.845 691.995 774.718 691.207C775.618 690.391 777.11 689.983 779.192 689.983L798.779 690.025C804.886 690.025 809.614 691.544 812.963 694.584C816.34 697.595 818.029 701.268 818.029 705.602C818.029 708.303 817.241 710.766 815.665 712.989C814.089 715.184 811.711 717.14 808.531 718.857C810.36 720.461 812.316 722.515 814.398 725.02C815.693 726.624 817.438 729.129 819.633 732.534C821.828 732.534 823.277 732.759 823.981 733.209C825.247 734.082 825.88 735.306 825.88 736.882C825.88 738.148 825.444 739.189 824.572 740.006C823.699 740.794 822.222 741.188 820.139 741.188H815.2C808.193 730.353 802.382 723.838 797.766 721.643H789.197ZM789.197 712.989H795.951C798.456 712.989 800.693 712.609 802.663 711.849C805.308 710.836 807.081 709.767 807.982 708.641C808.911 707.515 809.375 706.404 809.375 705.306C809.375 703.674 808.503 702.168 806.758 700.789C805.013 699.382 802.466 698.679 799.117 698.679H789.197V712.989Z" fill="#00FF88"/>
<path d="M282.73 784.263V791.927H288.303C288.691 791.927 288.968 792.004 289.136 792.159C289.303 792.301 289.387 792.495 289.387 792.74C289.387 792.972 289.303 793.166 289.136 793.32C288.968 793.475 288.691 793.553 288.303 793.553H278.917C278.53 793.553 278.253 793.475 278.085 793.32C277.917 793.166 277.833 792.972 277.833 792.74C277.833 792.495 277.917 792.301 278.085 792.159C278.253 792.004 278.53 791.927 278.917 791.927H281.104V772.535H278.917C278.53 772.535 278.253 772.464 278.085 772.322C277.917 772.167 277.833 771.967 277.833 771.722C277.833 771.477 277.917 771.283 278.085 771.142C278.253 770.987 278.53 770.909 278.917 770.909H288.362C290.594 770.909 292.413 771.567 293.819 772.883C295.238 774.199 295.948 775.741 295.948 777.509C295.948 778.554 295.716 779.496 295.251 780.334C294.8 781.173 294.251 781.831 293.606 782.308C292.639 783.031 291.639 783.56 290.607 783.895C289.858 784.141 288.929 784.263 287.82 784.263H282.73ZM282.73 782.637H287.916C289.116 782.637 290.239 782.373 291.284 781.844C292.342 781.302 293.11 780.644 293.587 779.87C294.077 779.096 294.322 778.309 294.322 777.509C294.322 776.231 293.774 775.083 292.677 774.064C291.581 773.045 290.194 772.535 288.516 772.535H282.73V782.637ZM315.418 785.986H304.734L302.548 791.927H305.663C306.05 791.927 306.328 792.004 306.496 792.159C306.663 792.301 306.747 792.495 306.747 792.74C306.747 792.972 306.663 793.166 306.496 793.32C306.328 793.475 306.05 793.553 305.663 793.553H299.586C299.199 793.553 298.922 793.475 298.754 793.32C298.587 793.166 298.503 792.972 298.503 792.74C298.503 792.495 298.587 792.301 298.754 792.159C298.922 792.004 299.199 791.927 299.586 791.927H300.844L308.025 772.535H303.225C302.838 772.535 302.56 772.464 302.393 772.322C302.225 772.167 302.141 771.967 302.141 771.722C302.141 771.477 302.225 771.283 302.393 771.142C302.56 770.987 302.838 770.909 303.225 770.909H311.411L319.346 791.927H320.604C320.991 791.927 321.269 792.004 321.436 792.159C321.604 792.301 321.688 792.495 321.688 792.74C321.688 792.972 321.604 793.166 321.436 793.32C321.269 793.475 320.991 793.553 320.604 793.553H314.547C314.147 793.553 313.863 793.475 313.695 793.32C313.527 793.166 313.443 792.972 313.443 792.74C313.443 792.495 313.527 792.301 313.695 792.159C313.863 792.004 314.147 791.927 314.547 791.927H317.643L315.418 785.986ZM314.798 784.36L310.308 772.535H309.708L305.354 784.36H314.798ZM328.578 783.45V791.927H331.578C331.978 791.927 332.261 792.004 332.429 792.159C332.597 792.301 332.681 792.495 332.681 792.74C332.681 792.972 332.597 793.166 332.429 793.32C332.261 793.475 331.978 793.553 331.578 793.553H324.765C324.378 793.553 324.101 793.475 323.933 793.32C323.765 793.166 323.681 792.972 323.681 792.74C323.681 792.495 323.765 792.301 323.933 792.159C324.101 792.004 324.378 791.927 324.765 791.927H326.952V772.535H324.765C324.378 772.535 324.101 772.464 323.933 772.322C323.765 772.167 323.681 771.967 323.681 771.722C323.681 771.477 323.765 771.283 323.933 771.142C324.101 770.987 324.378 770.909 324.765 770.909H334.597C336.622 770.909 338.325 771.554 339.706 772.845C341.099 774.122 341.796 775.567 341.796 777.18C341.796 778.341 341.364 779.438 340.499 780.47C339.648 781.489 338.216 782.341 336.203 783.025C337.364 783.824 338.358 784.728 339.183 785.734C340.009 786.74 341.332 788.805 343.151 791.927H344.389C344.777 791.927 345.054 792.004 345.222 792.159C345.389 792.301 345.473 792.495 345.473 792.74C345.473 792.972 345.389 793.166 345.222 793.32C345.054 793.475 344.777 793.553 344.389 793.553H342.222C340.209 789.953 338.648 787.54 337.538 786.315C336.442 785.089 335.177 784.134 333.745 783.45H328.578ZM328.578 781.825H333.01C334.429 781.825 335.713 781.567 336.861 781.05C338.022 780.534 338.861 779.928 339.377 779.231C339.906 778.535 340.17 777.825 340.17 777.102C340.17 776.019 339.622 774.986 338.525 774.006C337.442 773.025 336.119 772.535 334.558 772.535H328.578V781.825ZM358.479 772.535V791.927H362.698C363.085 791.927 363.362 792.004 363.53 792.159C363.698 792.301 363.781 792.495 363.781 792.74C363.781 792.972 363.698 793.166 363.53 793.32C363.362 793.475 363.085 793.553 362.698 793.553H352.615C352.228 793.553 351.95 793.475 351.782 793.32C351.615 793.166 351.531 792.972 351.531 792.74C351.531 792.495 351.615 792.301 351.782 792.159C351.95 792.004 352.228 791.927 352.615 791.927H356.834V772.535H350.176V778.167C350.176 778.567 350.099 778.851 349.944 779.018C349.802 779.186 349.608 779.27 349.363 779.27C349.131 779.27 348.937 779.186 348.783 779.018C348.628 778.851 348.55 778.567 348.55 778.167V770.909H366.762V778.167C366.762 778.567 366.684 778.851 366.53 779.018C366.388 779.186 366.194 779.27 365.949 779.27C365.704 779.27 365.504 779.186 365.349 779.018C365.207 778.851 365.136 778.567 365.136 778.167V772.535H358.479ZM382.303 772.535V791.927H387.876C388.263 791.927 388.541 792.004 388.709 792.159C388.876 792.301 388.96 792.495 388.96 792.74C388.96 792.972 388.876 793.166 388.709 793.32C388.541 793.475 388.263 793.553 387.876 793.553H375.103C374.716 793.553 374.439 793.475 374.271 793.32C374.103 793.166 374.019 792.972 374.019 792.74C374.019 792.495 374.103 792.301 374.271 792.159C374.439 792.004 374.716 791.927 375.103 791.927H380.677V772.535H375.103C374.716 772.535 374.439 772.464 374.271 772.322C374.103 772.167 374.019 771.967 374.019 771.722C374.019 771.477 374.103 771.283 374.271 771.142C374.439 770.987 374.716 770.909 375.103 770.909H387.876C388.263 770.909 388.541 770.987 388.709 771.142C388.876 771.283 388.96 771.477 388.96 771.722C388.96 771.967 388.876 772.167 388.709 772.322C388.541 772.464 388.263 772.535 387.876 772.535H382.303ZM406.088 772.535V791.927H410.307C410.694 791.927 410.971 792.004 411.139 792.159C411.307 792.301 411.391 792.495 411.391 792.74C411.391 792.972 411.307 793.166 411.139 793.32C410.971 793.475 410.694 793.553 410.307 793.553H400.224C399.837 793.553 399.559 793.475 399.392 793.32C399.224 793.166 399.14 792.972 399.14 792.74C399.14 792.495 399.224 792.301 399.392 792.159C399.559 792.004 399.837 791.927 400.224 791.927H404.443V772.535H397.785V778.167C397.785 778.567 397.708 778.851 397.553 779.018C397.411 779.186 397.218 779.27 396.972 779.27C396.74 779.27 396.547 779.186 396.392 779.018C396.237 778.851 396.16 778.567 396.16 778.167V770.909H414.371V778.167C414.371 778.567 414.294 778.851 414.139 779.018C413.997 779.186 413.803 779.27 413.558 779.27C413.313 779.27 413.113 779.186 412.958 779.018C412.816 778.851 412.745 778.567 412.745 778.167V772.535H406.088ZM429.912 772.535V791.927H435.486C435.873 791.927 436.15 792.004 436.318 792.159C436.486 792.301 436.569 792.495 436.569 792.74C436.569 792.972 436.486 793.166 436.318 793.32C436.15 793.475 435.873 793.553 435.486 793.553H422.712C422.325 793.553 422.048 793.475 421.88 793.32C421.712 793.166 421.629 792.972 421.629 792.74C421.629 792.495 421.712 792.301 421.88 792.159C422.048 792.004 422.325 791.927 422.712 791.927H428.286V772.535H422.712C422.325 772.535 422.048 772.464 421.88 772.322C421.712 772.167 421.629 771.967 421.629 771.722C421.629 771.477 421.712 771.283 421.88 771.142C422.048 770.987 422.325 770.909 422.712 770.909H435.486C435.873 770.909 436.15 770.987 436.318 771.142C436.486 771.283 436.569 771.477 436.569 771.722C436.569 771.967 436.486 772.167 436.318 772.322C436.15 772.464 435.873 772.535 435.486 772.535H429.912ZM462.832 782.289C462.832 784.457 462.393 786.469 461.516 788.327C460.639 790.172 459.426 791.611 457.877 792.643C456.342 793.675 454.691 794.191 452.923 794.191C450.304 794.191 447.994 793.082 445.994 790.863C444.008 788.631 443.014 785.773 443.014 782.289C443.014 778.793 444.008 775.935 445.994 773.716C447.994 771.496 450.304 770.387 452.923 770.387C454.691 770.387 456.342 770.903 457.877 771.935C459.413 772.967 460.619 774.406 461.497 776.251C462.387 778.096 462.832 780.109 462.832 782.289ZM461.187 782.289C461.187 779.644 460.419 777.27 458.884 775.167C457.348 773.064 455.362 772.012 452.923 772.012C450.639 772.012 448.685 773.019 447.059 775.032C445.446 777.031 444.64 779.451 444.64 782.289C444.64 785.308 445.485 787.779 447.175 789.701C448.878 791.611 450.794 792.566 452.923 792.566C455.362 792.566 457.348 791.521 458.884 789.43C460.419 787.327 461.187 784.947 461.187 782.289ZM484.662 793.553H482.572L470.593 773.29V791.927H473.592C473.992 791.927 474.276 792.004 474.444 792.159C474.612 792.301 474.695 792.495 474.695 792.74C474.695 792.972 474.612 793.166 474.444 793.32C474.276 793.475 473.992 793.553 473.592 793.553H467.612C467.212 793.553 466.928 793.475 466.761 793.32C466.593 793.166 466.509 792.972 466.509 792.74C466.509 792.495 466.593 792.301 466.761 792.159C466.928 792.004 467.212 791.927 467.612 791.927H468.967V772.535H466.78C466.393 772.535 466.116 772.464 465.948 772.322C465.78 772.167 465.696 771.967 465.696 771.722C465.696 771.477 465.78 771.283 465.948 771.142C466.116 770.987 466.393 770.909 466.78 770.909H471.038L483.037 791.211V772.535H480.037C479.65 772.535 479.373 772.464 479.205 772.322C479.037 772.167 478.953 771.967 478.953 771.722C478.953 771.477 479.031 771.283 479.185 771.142C479.353 770.987 479.637 770.909 480.037 770.909H486.037C486.424 770.909 486.701 770.987 486.869 771.142C487.036 771.283 487.12 771.477 487.12 771.722C487.12 771.967 487.036 772.167 486.869 772.322C486.701 772.464 486.424 772.535 486.037 772.535H484.662V793.553ZM531.459 773.135V771.993C531.459 771.606 531.53 771.329 531.672 771.161C531.827 770.993 532.027 770.909 532.272 770.909C532.517 770.909 532.71 770.993 532.852 771.161C533.007 771.329 533.085 771.606 533.085 771.993V776.502C533.085 776.902 533.007 777.186 532.852 777.354C532.71 777.522 532.517 777.606 532.272 777.606C532.052 777.606 531.865 777.528 531.71 777.373C531.569 777.219 531.485 776.967 531.459 776.619C531.394 775.535 530.807 774.574 529.698 773.735C528.201 772.587 526.498 772.012 524.588 772.012C523.337 772.012 522.156 772.29 521.047 772.845C520.221 773.245 519.563 773.735 519.073 774.316C518.221 775.322 517.544 776.438 517.041 777.664C516.679 778.567 516.499 779.586 516.499 780.721V783.566C516.499 785.992 517.376 788.102 519.131 789.895C520.885 791.675 522.924 792.566 525.246 792.566C526.64 792.566 527.885 792.263 528.982 791.656C530.091 791.05 531.162 790.134 532.194 788.908C532.414 788.637 532.659 788.502 532.93 788.502C533.162 788.502 533.349 788.572 533.491 788.714C533.633 788.856 533.704 789.037 533.704 789.256C533.704 789.553 533.426 790.005 532.872 790.611C531.814 791.798 530.62 792.695 529.291 793.301C527.975 793.895 526.64 794.191 525.285 794.191C524.111 794.191 522.918 793.966 521.705 793.514C520.776 793.166 520.008 792.759 519.402 792.295C518.795 791.83 518.047 791.05 517.157 789.953C516.279 788.843 515.679 787.824 515.357 786.895C515.034 785.953 514.873 784.921 514.873 783.799V780.489C514.873 778.889 515.299 777.257 516.15 775.593C517.015 773.916 518.189 772.632 519.673 771.742C521.169 770.838 522.789 770.387 524.53 770.387C527.214 770.387 529.524 771.303 531.459 773.135ZM558.05 782.289C558.05 784.457 557.612 786.469 556.734 788.327C555.857 790.172 554.644 791.611 553.096 792.643C551.561 793.675 549.909 794.191 548.141 794.191C545.522 794.191 543.213 793.082 541.213 790.863C539.226 788.631 538.233 785.773 538.233 782.289C538.233 778.793 539.226 775.935 541.213 773.716C543.213 771.496 545.522 770.387 548.141 770.387C549.909 770.387 551.561 770.903 553.096 771.935C554.631 772.967 555.838 774.406 556.715 776.251C557.605 778.096 558.05 780.109 558.05 782.289ZM556.405 782.289C556.405 779.644 555.638 777.27 554.102 775.167C552.567 773.064 550.58 772.012 548.141 772.012C545.858 772.012 543.903 773.019 542.277 775.032C540.665 777.031 539.858 779.451 539.858 782.289C539.858 785.308 540.703 787.779 542.394 789.701C544.097 791.611 546.013 792.566 548.141 792.566C550.58 792.566 552.567 791.521 554.102 789.43C555.638 787.327 556.405 784.947 556.405 782.289ZM579.881 793.553H577.791L565.811 773.29V791.927H568.811C569.211 791.927 569.495 792.004 569.662 792.159C569.83 792.301 569.914 792.495 569.914 792.74C569.914 792.972 569.83 793.166 569.662 793.32C569.495 793.475 569.211 793.553 568.811 793.553H562.831C562.431 793.553 562.147 793.475 561.979 793.32C561.811 793.166 561.727 792.972 561.727 792.74C561.727 792.495 561.811 792.301 561.979 792.159C562.147 792.004 562.431 791.927 562.831 791.927H564.185V772.535H561.998C561.611 772.535 561.334 772.464 561.166 772.322C560.998 772.167 560.915 771.967 560.915 771.722C560.915 771.477 560.998 771.283 561.166 771.142C561.334 770.987 561.611 770.909 561.998 770.909H566.256L578.255 791.211V772.535H575.255C574.868 772.535 574.591 772.464 574.423 772.322C574.256 772.167 574.172 771.967 574.172 771.722C574.172 771.477 574.249 771.283 574.404 771.142C574.572 770.987 574.855 770.909 575.255 770.909H581.255C581.642 770.909 581.919 770.987 582.087 771.142C582.255 771.283 582.339 771.477 582.339 771.722C582.339 771.967 582.255 772.167 582.087 772.322C581.919 772.464 581.642 772.535 581.255 772.535H579.881V793.553ZM596.525 772.535V791.927H600.744C601.131 791.927 601.408 792.004 601.576 792.159C601.744 792.301 601.828 792.495 601.828 792.74C601.828 792.972 601.744 793.166 601.576 793.32C601.408 793.475 601.131 793.553 600.744 793.553H590.661C590.274 793.553 589.996 793.475 589.829 793.32C589.661 793.166 589.577 792.972 589.577 792.74C589.577 792.495 589.661 792.301 589.829 792.159C589.996 792.004 590.274 791.927 590.661 791.927H594.88V772.535H588.222V778.167C588.222 778.567 588.145 778.851 587.99 779.018C587.848 779.186 587.654 779.27 587.409 779.27C587.177 779.27 586.984 779.186 586.829 779.018C586.674 778.851 586.597 778.567 586.597 778.167V770.909H604.808V778.167C604.808 778.567 604.731 778.851 604.576 779.018C604.434 779.186 604.24 779.27 603.995 779.27C603.75 779.27 603.55 779.186 603.395 779.018C603.253 778.851 603.182 778.567 603.182 778.167V772.535H596.525ZM614.233 783.45V791.927H617.233C617.633 791.927 617.917 792.004 618.084 792.159C618.252 792.301 618.336 792.495 618.336 792.74C618.336 792.972 618.252 793.166 618.084 793.32C617.917 793.475 617.633 793.553 617.233 793.553H610.42C610.033 793.553 609.756 793.475 609.588 793.32C609.421 793.166 609.337 792.972 609.337 792.74C609.337 792.495 609.421 792.301 609.588 792.159C609.756 792.004 610.033 791.927 610.42 791.927H612.607V772.535H610.42C610.033 772.535 609.756 772.464 609.588 772.322C609.421 772.167 609.337 771.967 609.337 771.722C609.337 771.477 609.421 771.283 609.588 771.142C609.756 770.987 610.033 770.909 610.42 770.909H620.252C622.278 770.909 623.981 771.554 625.361 772.845C626.755 774.122 627.451 775.567 627.451 777.18C627.451 778.341 627.019 779.438 626.155 780.47C625.303 781.489 623.871 782.341 621.858 783.025C623.02 783.824 624.013 784.728 624.839 785.734C625.664 786.74 626.987 788.805 628.806 791.927H630.045C630.432 791.927 630.709 792.004 630.877 792.159C631.045 792.301 631.129 792.495 631.129 792.74C631.129 792.972 631.045 793.166 630.877 793.32C630.709 793.475 630.432 793.553 630.045 793.553H627.877C625.864 789.953 624.303 787.54 623.194 786.315C622.097 785.089 620.833 784.134 619.4 783.45H614.233ZM614.233 781.825H618.665C620.084 781.825 621.368 781.567 622.516 781.05C623.678 780.534 624.516 779.928 625.032 779.231C625.561 778.535 625.826 777.825 625.826 777.102C625.826 776.019 625.277 774.986 624.181 774.006C623.097 773.025 621.774 772.535 620.213 772.535H614.233V781.825ZM653.269 782.289C653.269 784.457 652.83 786.469 651.953 788.327C651.075 790.172 649.863 791.611 648.314 792.643C646.779 793.675 645.127 794.191 643.36 794.191C640.741 794.191 638.431 793.082 636.431 790.863C634.444 788.631 633.451 785.773 633.451 782.289C633.451 778.793 634.444 775.935 636.431 773.716C638.431 771.496 640.741 770.387 643.36 770.387C645.127 770.387 646.779 770.903 648.314 771.935C649.85 772.967 651.056 774.406 651.933 776.251C652.824 778.096 653.269 780.109 653.269 782.289ZM651.624 782.289C651.624 779.644 650.856 777.27 649.321 775.167C647.785 773.064 645.798 772.012 643.36 772.012C641.076 772.012 639.122 773.019 637.496 775.032C635.883 777.031 635.077 779.451 635.077 782.289C635.077 785.308 635.922 787.779 637.612 789.701C639.315 791.611 641.231 792.566 643.36 792.566C645.798 792.566 647.785 791.521 649.321 789.43C650.856 787.327 651.624 784.947 651.624 782.289ZM664.32 772.535V791.927H675.119V785.463C675.119 785.076 675.196 784.799 675.351 784.631C675.506 784.463 675.706 784.379 675.951 784.379C676.183 784.379 676.377 784.463 676.531 784.631C676.686 784.786 676.764 785.063 676.764 785.463V793.553H658.804C658.417 793.553 658.139 793.475 657.972 793.32C657.804 793.166 657.72 792.972 657.72 792.74C657.72 792.495 657.804 792.301 657.972 792.159C658.139 792.004 658.417 791.927 658.804 791.927H662.674V772.535H658.804C658.417 772.535 658.139 772.464 657.972 772.322C657.804 772.167 657.72 771.967 657.72 771.722C657.72 771.477 657.804 771.283 657.972 771.142C658.139 770.987 658.417 770.909 658.804 770.909H668.19C668.577 770.909 668.855 770.987 669.022 771.142C669.19 771.283 669.274 771.477 669.274 771.722C669.274 771.967 669.19 772.167 669.022 772.322C668.855 772.464 668.577 772.535 668.19 772.535H664.32ZM688.124 772.535V791.927H698.923V785.463C698.923 785.076 699.001 784.799 699.156 784.631C699.31 784.463 699.51 784.379 699.755 784.379C699.988 784.379 700.181 784.463 700.336 784.631C700.491 784.786 700.568 785.063 700.568 785.463V793.553H682.608C682.221 793.553 681.944 793.475 681.776 793.32C681.609 793.166 681.525 792.972 681.525 792.74C681.525 792.495 681.609 792.301 681.776 792.159C681.944 792.004 682.221 791.927 682.608 791.927H686.479V772.535H682.608C682.221 772.535 681.944 772.464 681.776 772.322C681.609 772.167 681.525 771.967 681.525 771.722C681.525 771.477 681.609 771.283 681.776 771.142C681.944 770.987 682.221 770.909 682.608 770.909H691.995C692.382 770.909 692.659 770.987 692.827 771.142C692.995 771.283 693.079 771.477 693.079 771.722C693.079 771.967 692.995 772.167 692.827 772.322C692.659 772.464 692.382 772.535 691.995 772.535H688.124ZM709.452 782.618V791.927H721.954V787.127C721.954 786.74 722.025 786.463 722.167 786.295C722.322 786.128 722.521 786.044 722.767 786.044C723.012 786.044 723.205 786.128 723.347 786.295C723.502 786.463 723.579 786.74 723.579 787.127V793.553H705.639C705.252 793.553 704.974 793.475 704.807 793.32C704.639 793.166 704.555 792.972 704.555 792.74C704.555 792.495 704.639 792.301 704.807 792.159C704.974 792.004 705.252 791.927 705.639 791.927H707.826V772.535H705.639C705.252 772.535 704.974 772.464 704.807 772.322C704.639 772.167 704.555 771.967 704.555 771.722C704.555 771.477 704.639 771.283 704.807 771.142C704.974 770.987 705.252 770.909 705.639 770.909H722.728V776.502C722.728 776.89 722.651 777.167 722.496 777.335C722.354 777.502 722.16 777.586 721.915 777.586C721.67 777.586 721.47 777.502 721.315 777.335C721.173 777.167 721.102 776.89 721.102 776.502V772.535H709.452V780.992H715.277V779.154C715.277 778.767 715.354 778.489 715.509 778.322C715.664 778.154 715.864 778.07 716.109 778.07C716.341 778.07 716.535 778.154 716.69 778.322C716.845 778.489 716.922 778.767 716.922 779.154V784.457C716.922 784.844 716.845 785.121 716.69 785.289C716.535 785.457 716.341 785.54 716.109 785.54C715.864 785.54 715.664 785.457 715.509 785.289C715.354 785.121 715.277 784.844 715.277 784.457V782.618H709.452ZM733.256 783.45V791.927H736.256C736.656 791.927 736.94 792.004 737.107 792.159C737.275 792.301 737.359 792.495 737.359 792.74C737.359 792.972 737.275 793.166 737.107 793.32C736.94 793.475 736.656 793.553 736.256 793.553H729.443C729.056 793.553 728.779 793.475 728.611 793.32C728.444 793.166 728.36 792.972 728.36 792.74C728.36 792.495 728.444 792.301 728.611 792.159C728.779 792.004 729.056 791.927 729.443 791.927H731.63V772.535H729.443C729.056 772.535 728.779 772.464 728.611 772.322C728.444 772.167 728.36 771.967 728.36 771.722C728.36 771.477 728.444 771.283 728.611 771.142C728.779 770.987 729.056 770.909 729.443 770.909H739.275C741.301 770.909 743.004 771.554 744.384 772.845C745.778 774.122 746.474 775.567 746.474 777.18C746.474 778.341 746.042 779.438 745.178 780.47C744.326 781.489 742.894 782.341 740.881 783.025C742.043 783.824 743.036 784.728 743.862 785.734C744.687 786.74 746.01 788.805 747.829 791.927H749.068C749.455 791.927 749.732 792.004 749.9 792.159C750.068 792.301 750.152 792.495 750.152 792.74C750.152 792.972 750.068 793.166 749.9 793.32C749.732 793.475 749.455 793.553 749.068 793.553H746.9C744.887 789.953 743.326 787.54 742.217 786.315C741.12 785.089 739.856 784.134 738.423 783.45H733.256ZM733.256 781.825H737.688C739.107 781.825 740.391 781.567 741.539 781.05C742.701 780.534 743.539 779.928 744.055 779.231C744.584 778.535 744.849 777.825 744.849 777.102C744.849 776.019 744.3 774.986 743.204 774.006C742.12 773.025 740.797 772.535 739.236 772.535H733.256V781.825Z" fill="#00FF88"/>
<path d="M274.369 803.597H750.442V805.223H274.369V803.597Z" fill="#00FF88"/>
<g opacity="0.08" filter="url(#filter5_f_1_2)">
<path d="M512 981.598C771.352 981.598 981.598 771.352 981.598 512C981.598 252.648 771.352 42.4023 512 42.4023C252.648 42.4023 42.4023 252.648 42.4023 512C42.4023 771.352 252.648 981.598 512 981.598Z" stroke="#00FF88" stroke-width="5.89453"/>
</g>
</g>
<defs>
<filter id="filter0_f_1_2" x="173.064" y="171.1" width="677.871" height="658.223" filterUnits="userSpaceOnUse" color-interpolation-filters="sRGB">
<feFlood flood-opacity="0" result="BackgroundImageFix"/>
<feBlend mode="normal" in="SourceGraphic" in2="BackgroundImageFix" result="shape"/>
<feGaussianBlur stdDeviation="11.7891" result="effect1_foregroundBlur_1_2"/>
</filter>
<filter id="filter1_f_1_2" x="365.97" y="261.853" width="168.632" height="286.432" filterUnits="userSpaceOnUse" color-interpolation-filters="sRGB">
<feFlood flood-opacity="0" result="BackgroundImageFix"/>
<feBlend mode="normal" in="SourceGraphic" in2="BackgroundImageFix" result="shape"/>
<feGaussianBlur stdDeviation="5.89453" result="effect1_foregroundBlur_1_2"/>
</filter>
<filter id="filter2_f_1_2" x="568.98" y="284.078" width="98.2422" height="98.2422" filterUnits="userSpaceOnUse" color-interpolation-filters="sRGB">
<feFlood flood-opacity="0" result="BackgroundImageFix"/>
<feBlend mode="normal" in="SourceGraphic" in2="BackgroundImageFix" result="shape"/>
<feGaussianBlur stdDeviation="19.6484" result="effect1_foregroundBlur_1_2"/>
</filter>
<filter id="filter3_f_1_2" x="455.02" y="443.23" width="113.961" height="113.961" filterUnits="userSpaceOnUse" color-interpolation-filters="sRGB">
<feFlood flood-opacity="0" result="BackgroundImageFix"/>
<feBlend mode="normal" in="SourceGraphic" in2="BackgroundImageFix" result="shape"/>
<feGaussianBlur stdDeviation="19.6484" result="effect1_foregroundBlur_1_2"/>
</filter>
<filter id="filter4_f_1_2" x="478.598" y="466.809" width="66.8047" height="66.8047" filterUnits="userSpaceOnUse" color-interpolation-filters="sRGB">
<feFlood flood-opacity="0" result="BackgroundImageFix"/>
<feBlend mode="normal" in="SourceGraphic" in2="BackgroundImageFix" result="shape"/>
<feGaussianBlur stdDeviation="11.7891" result="effect1_foregroundBlur_1_2"/>
</filter>
<filter id="filter5_f_1_2" x="0.158199" y="0.158199" width="1023.68" height="1023.68" filterUnits="userSpaceOnUse" color-interpolation-filters="sRGB">
<feFlood flood-opacity="0" result="BackgroundImageFix"/>
<feBlend mode="normal" in="SourceGraphic" in2="BackgroundImageFix" result="shape"/>
<feGaussianBlur stdDeviation="19.6484" result="effect1_foregroundBlur_1_2"/>
</filter>
<radialGradient id="paint0_radial_1_2" cx="0" cy="0" r="1" gradientUnits="userSpaceOnUse" gradientTransform="translate(47196.7 47196.7) scale(47156.3)">
<stop stop-color="#0F1F18"/>
<stop offset="1" stop-color="#0A0C0F"/>
</radialGradient>
<radialGradient id="paint1_radial_1_2" cx="0" cy="0" r="1" gradientUnits="userSpaceOnUse" gradientTransform="translate(31635.1 24559.7) scale(37725 36546.1)">
<stop stop-color="#1A2A22"/>
<stop offset="1" stop-color="#0D1510"/>
</radialGradient>
<radialGradient id="paint2_radial_1_2" cx="0" cy="0" r="1" gradientUnits="userSpaceOnUse" gradientTransform="translate(2262.68 2250.89) scale(1768.36)">
<stop stop-color="#00FF88" stop-opacity="0.9"/>
<stop offset="0.6" stop-color="#00CC66" stop-opacity="0.6"/>
<stop offset="1" stop-color="#00FF88" stop-opacity="0"/>
</radialGradient>
<clipPath id="clip0_1_2">
<rect width="1024" height="1024" fill="white"/>
</clipPath>
</defs>
</svg>
